<?xml version="1.0" encoding="utf-8"?>
<!-- Generator: Adobe Illustrator 23.0.0, SVG Export Plug-In . SVG Version: 6.00 Build 0)  -->
<svg version="1.1" id="Layer_1" xmlns="http://www.w3.org/2000/svg" xmlns:xlink="http://www.w3.org/1999/xlink" x="0px" y="0px"
	 viewBox="0 0 45 45" style="enable-background:new 0 0 45 45;" xml:space="preserve">
<g>
	<path d="M22.5,0C10.1,0,0,10.1,0,22.5S10.1,45,22.5,45S45,34.9,45,22.5S34.9,0,22.5,0z M18.2,33V12l14.6,10.5L18.2,33z"/>
</g>
<g>
	<polygon points="75.7,33 75.7,12 90.3,22.5 	"/>
</g>
<g>
	<path d="M80,1c11.9,0,21.5,9.6,21.5,21.5S91.8,44,80,44s-21.5-9.6-21.5-21.5S68.1,1,80,1 M80,0C67.6,0,57.5,10.1,57.5,22.5
		S67.6,45,80,45s22.5-10.1,22.5-22.5S92.4,0,80,0L80,0z"/>
</g>
</svg>
